<svg xmlns="http://www.w3.org/2000/svg" xmlns:xlink="http://www.w3.org/1999/xlink" width="134.5600000000004" height="142.55999999999995" viewBox="3708.22 1045.22 134.5600000000004 142.55999999999995" preserveAspectRatio="xMinYMin meet"><g transform="matrix(1,0,0,-1,0,2233.0)"><path fill-rule="evenodd" fill="#66cc99" stroke="#555555" stroke-width="2.0" opacity="0.6" d="M 3779.5,1050.5 L 3779.5,1052.5 L 3778.5,1052.5 L 3778.5,1053.5 L 3777.5,1053.5 L 3777.5,1054.5 L 3774.5,1054.5 L 3774.5,1053.5 L 3771.5,1053.5 L 3771.5,1051.5 L 3759.5,1051.5 L 3759.5,1052.5 L 3756.5,1052.5 L 3756.5,1055.5 L 3751.5,1055.5 L 3751.5,1057.5 L 3750.5,1057.5 L 3750.5,1058.5 L 3748.5,1058.5 L 3748.5,1059.5 L 3746.5,1059.5 L 3746.5,1060.5 L 3745.5,1060.5 L 3745.5,1062.5 L 3744.5,1062.5 L 3744.5,1063.5 L 3743.5,1063.5 L 3743.5,1064.5 L 3741.5,1064.5 L 3741.5,1065.5 L 3739.5,1065.5 L 3739.5,1066.5 L 3738.5,1066.5 L 3738.5,1067.5 L 3737.5,1067.5 L 3737.5,1068.5 L 3735.5,1068.5 L 3735.5,1069.5 L 3732.5,1069.5 L 3732.5,1070.5 L 3729.5,1070.5 L 3729.5,1071.5 L 3728.5,1071.5 L 3728.5,1072.5 L 3727.5,1072.5 L 3727.5,1078.5 L 3726.5,1078.5 L 3726.5,1080.5 L 3720.5,1080.5 L 3720.5,1077.5 L 3718.5,1077.5 L 3718.5,1081.5 L 3717.5,1081.5 L 3717.5,1082.5 L 3718.5,1082.5 L 3718.5,1083.5 L 3719.5,1083.5 L 3719.5,1084.5 L 3720.5,1084.5 L 3720.5,1086.5 L 3719.5,1086.5 L 3719.5,1087.5 L 3718.5,1087.5 L 3718.5,1088.5 L 3717.5,1088.5 L 3717.5,1090.5 L 3718.5,1090.5 L 3718.5,1091.5 L 3719.5,1091.5 L 3719.5,1092.5 L 3720.5,1092.5 L 3720.5,1095.5 L 3719.5,1095.5 L 3719.5,1097.5 L 3720.5,1097.5 L 3720.5,1098.5 L 3722.5,1098.5 L 3722.5,1101.5 L 3721.5,1101.5 L 3721.5,1103.5 L 3722.5,1103.5 L 3722.5,1106.5 L 3721.5,1106.5 L 3721.5,1108.5 L 3722.5,1108.5 L 3722.5,1110.5 L 3719.5,1110.5 L 3719.5,1111.5 L 3717.5,1111.5 L 3717.5,1112.5 L 3716.5,1112.5 L 3716.5,1113.5 L 3713.5,1113.5 L 3713.5,1117.5 L 3714.5,1117.5 L 3714.5,1118.5 L 3715.5,1118.5 L 3715.5,1119.5 L 3716.5,1119.5 L 3716.5,1121.5 L 3717.5,1121.5 L 3717.5,1122.5 L 3718.5,1122.5 L 3718.5,1125.5 L 3721.5,1125.5 L 3721.5,1126.5 L 3722.5,1126.5 L 3722.5,1127.5 L 3723.5,1127.5 L 3723.5,1129.5 L 3722.5,1129.5 L 3722.5,1132.5 L 3723.5,1132.5 L 3723.5,1136.5 L 3721.5,1136.5 L 3721.5,1141.5 L 3722.5,1141.5 L 3722.5,1140.5 L 3723.5,1140.5 L 3723.5,1139.5 L 3724.5,1139.5 L 3724.5,1138.5 L 3726.5,1138.5 L 3726.5,1144.5 L 3725.5,1144.5 L 3725.5,1145.5 L 3722.5,1145.5 L 3722.5,1148.5 L 3728.5,1148.5 L 3728.5,1149.5 L 3729.5,1149.5 L 3729.5,1152.5 L 3730.5,1152.5 L 3730.5,1153.5 L 3731.5,1153.5 L 3731.5,1154.5 L 3732.5,1154.5 L 3732.5,1155.5 L 3734.5,1155.5 L 3734.5,1154.5 L 3737.5,1154.5 L 3737.5,1155.5 L 3739.5,1155.5 L 3739.5,1154.5 L 3742.5,1154.5 L 3742.5,1155.5 L 3743.5,1155.5 L 3743.5,1156.5 L 3745.5,1156.5 L 3745.5,1157.5 L 3747.5,1157.5 L 3747.5,1163.5 L 3751.5,1163.5 L 3751.5,1162.5 L 3752.5,1162.5 L 3752.5,1165.5 L 3753.5,1165.5 L 3753.5,1167.5 L 3754.5,1167.5 L 3754.5,1168.5 L 3757.5,1168.5 L 3757.5,1169.5 L 3758.5,1169.5 L 3758.5,1171.5 L 3757.5,1171.5 L 3757.5,1172.5 L 3756.5,1172.5 L 3756.5,1175.5 L 3757.5,1175.5 L 3757.5,1177.5 L 3759.5,1177.5 L 3759.5,1178.5 L 3760.5,1178.5 L 3760.5,1181.5 L 3762.5,1181.5 L 3762.5,1180.5 L 3763.5,1180.5 L 3763.5,1178.5 L 3767.5,1178.5 L 3767.5,1179.5 L 3770.5,1179.5 L 3770.5,1180.5 L 3771.5,1180.5 L 3771.5,1181.5 L 3772.5,1181.5 L 3772.5,1182.5 L 3776.5,1182.5 L 3776.5,1181.5 L 3777.5,1181.5 L 3777.5,1180.5 L 3780.5,1180.5 L 3780.5,1181.5 L 3783.5,1181.5 L 3783.5,1182.5 L 3788.5,1182.5 L 3788.5,1179.5 L 3787.5,1179.5 L 3787.5,1177.5 L 3789.5,1177.5 L 3789.5,1178.5 L 3794.5,1178.5 L 3794.5,1177.5 L 3795.5,1177.5 L 3795.5,1176.5 L 3798.5,1176.5 L 3798.5,1177.5 L 3800.5,1177.5 L 3800.5,1178.5 L 3801.5,1178.5 L 3801.5,1176.5 L 3802.5,1176.5 L 3802.5,1175.5 L 3803.5,1175.5 L 3803.5,1174.5 L 3805.5,1174.5 L 3805.5,1173.5 L 3806.5,1173.5 L 3806.5,1172.5 L 3807.5,1172.5 L 3807.5,1169.5 L 3808.5,1169.5 L 3808.5,1168.5 L 3810.5,1168.5 L 3810.5,1167.5 L 3813.5,1167.5 L 3813.5,1165.5 L 3814.5,1165.5 L 3814.5,1163.5 L 3816.5,1163.5 L 3816.5,1162.5 L 3821.5,1162.5 L 3821.5,1163.5 L 3824.5,1163.5 L 3824.5,1162.5 L 3826.5,1162.5 L 3826.5,1161.5 L 3828.5,1161.5 L 3828.5,1160.5 L 3827.5,1160.5 L 3827.5,1158.5 L 3826.5,1158.5 L 3826.5,1157.5 L 3825.5,1157.5 L 3825.5,1155.5 L 3826.5,1155.5 L 3826.5,1154.5 L 3827.5,1154.5 L 3827.5,1155.5 L 3830.5,1155.5 L 3830.5,1154.5 L 3832.5,1154.5 L 3832.5,1153.5 L 3833.5,1153.5 L 3833.5,1152.5 L 3835.5,1152.5 L 3835.5,1149.5 L 3832.5,1149.5 L 3832.5,1147.5 L 3833.5,1147.5 L 3833.5,1146.5 L 3834.5,1146.5 L 3834.5,1145.5 L 3833.5,1145.5 L 3833.5,1144.5 L 3831.5,1144.5 L 3831.5,1143.5 L 3830.5,1143.5 L 3830.5,1141.5 L 3832.5,1141.5 L 3832.5,1140.5 L 3833.5,1140.5 L 3833.5,1138.5 L 3832.5,1138.5 L 3832.5,1135.5 L 3831.5,1135.5 L 3831.5,1132.5 L 3830.5,1132.5 L 3830.5,1129.5 L 3829.5,1129.5 L 3829.5,1123.5 L 3830.5,1123.5 L 3830.5,1121.5 L 3834.5,1121.5 L 3834.5,1120.5 L 3835.5,1120.5 L 3835.5,1119.5 L 3836.5,1119.5 L 3836.5,1118.5 L 3837.5,1118.5 L 3837.5,1113.5 L 3836.5,1113.5 L 3836.5,1112.5 L 3835.5,1112.5 L 3835.5,1111.5 L 3832.5,1111.5 L 3832.5,1110.5 L 3831.5,1110.5 L 3831.5,1109.5 L 3830.5,1109.5 L 3830.5,1108.5 L 3829.5,1108.5 L 3829.5,1106.5 L 3828.5,1106.5 L 3828.5,1104.5 L 3827.5,1104.5 L 3827.5,1103.5 L 3826.5,1103.5 L 3826.5,1102.5 L 3827.5,1102.5 L 3827.5,1101.5 L 3828.5,1101.5 L 3828.5,1100.5 L 3829.5,1100.5 L 3829.5,1093.5 L 3830.5,1093.5 L 3830.5,1092.5 L 3829.5,1092.5 L 3829.5,1090.5 L 3830.5,1090.5 L 3830.5,1089.5 L 3831.5,1089.5 L 3831.5,1088.5 L 3832.5,1088.5 L 3832.5,1086.5 L 3833.5,1086.5 L 3833.5,1083.5 L 3834.5,1083.5 L 3834.5,1081.5 L 3833.5,1081.5 L 3833.5,1080.5 L 3830.5,1080.5 L 3830.5,1081.5 L 3828.5,1081.5 L 3828.5,1082.5 L 3827.5,1082.5 L 3827.5,1083.5 L 3825.5,1083.5 L 3825.5,1082.5 L 3824.5,1082.5 L 3824.5,1081.5 L 3823.5,1081.5 L 3823.5,1080.5 L 3821.5,1080.5 L 3821.5,1078.5 L 3820.5,1078.5 L 3820.5,1074.5 L 3819.5,1074.5 L 3819.5,1075.5 L 3818.5,1075.5 L 3818.5,1076.5 L 3816.5,1076.5 L 3816.5,1077.5 L 3813.5,1077.5 L 3813.5,1076.5 L 3811.5,1076.5 L 3811.5,1075.5 L 3810.5,1075.5 L 3810.5,1072.5 L 3806.5,1072.5 L 3806.5,1073.5 L 3805.5,1073.5 L 3805.5,1072.5 L 3803.5,1072.5 L 3803.5,1071.5 L 3801.5,1071.5 L 3801.5,1070.5 L 3797.5,1070.5 L 3797.5,1069.5 L 3796.5,1069.5 L 3796.5,1067.5 L 3795.5,1067.5 L 3795.5,1066.5 L 3791.5,1066.5 L 3791.5,1064.5 L 3792.5,1064.5 L 3792.5,1062.5 L 3791.5,1062.5 L 3791.5,1061.5 L 3790.5,1061.5 L 3790.5,1060.5 L 3788.5,1060.5 L 3788.5,1059.5 L 3786.5,1059.5 L 3786.5,1058.5 L 3782.5,1058.5 L 3782.5,1057.5 L 3781.5,1057.5 L 3781.5,1050.5 L 3779.5,1050.5 z M 3827.5,1091.5 L 3828.5,1091.5 L 3828.5,1094.5 L 3827.5,1094.5 L 3827.5,1093.5 L 3826.5,1093.5 L 3826.5,1092.5 L 3827.5,1092.5 L 3827.5,1091.5 z M 3717.5,1114.5 L 3718.5,1114.5 L 3718.5,1116.5 L 3717.5,1116.5 L 3717.5,1114.5 z M 3719.5,1119.5 L 3721.5,1119.5 L 3721.5,1120.5 L 3722.5,1120.5 L 3722.5,1121.5 L 3721.5,1121.5 L 3721.5,1122.5 L 3720.5,1122.5 L 3720.5,1121.5 L 3719.5,1121.5 L 3719.5,1119.5 z" /></g></svg>