<?xml version="1.0" encoding="utf-8"?>
<!-- Generator: Adobe Illustrator 24.3.0, SVG Export Plug-In . SVG Version: 6.00 Build 0)  -->
<svg version="1.1" id="Layer_1" xmlns="http://www.w3.org/2000/svg" xmlns:xlink="http://www.w3.org/1999/xlink" x="0px" y="0px"
	 viewBox="0 0 298 113.2" style="enable-background:new 0 0 298 113.2;" xml:space="preserve">
<style type="text/css">
	.st0{fill:#FFFFFF;}
</style>
<path class="st0" d="M119.8,44.9c0.8,0,1.5-0.1,2.2-0.3c0.4-0.2,0.8-0.5,0.9-1c0.2-0.8,0.2-1.7,0.2-2.5V23.6h2.1v17.6
	c0,1-0.1,2-0.3,3c-0.2,0.7-0.7,1.3-1.3,1.7c-0.9,0.4-1.8,0.6-2.8,0.5h-1L119.8,44.9L119.8,44.9z"/>
<path class="st0" d="M128,23.6h1.8l2.9,17.7L136,24h1.7l3.4,17.5l2.7-17.9h1.7l-3.6,21.9h-1.6l-3.5-18.1l-3.4,18.1h-1.7L128,23.6z"
	/>
<path class="st0" d="M147.5,39.8l1.8-0.5c0.1,1.3,0.4,2.5,1,3.6c0.6,0.9,1.6,1.3,2.6,1.2c2.1,0,3.1-1.1,3.1-3.2
	c0-0.8-0.2-1.7-0.6-2.4c-0.6-0.9-1.2-1.7-2-2.4l-3.9-3.7c-0.6-0.6-1.1-1.3-1.5-2.1c-0.3-0.7-0.5-1.5-0.5-2.3
	c-0.1-1.3,0.4-2.6,1.4-3.5s2.3-1.3,3.7-1.2c1.4-0.1,2.7,0.4,3.8,1.3c1,1.2,1.5,2.7,1.5,4.2l-1.9,0.5c0-1.2-0.3-2.3-0.9-3.3
	c-0.6-0.8-1.5-1.2-2.4-1.1c-0.8,0-1.7,0.2-2.4,0.7c-0.6,0.6-0.9,1.4-0.9,2.2c0,0.6,0.1,1.1,0.4,1.6c0.3,0.6,0.7,1.1,1.2,1.5l3.9,3.7
	c0.9,0.9,1.7,1.8,2.4,2.9c0.6,1,0.9,2.1,0.9,3.2c0.1,1.4-0.4,2.7-1.4,3.7c-1,0.9-2.3,1.4-3.7,1.3c-1.5,0.1-2.9-0.5-3.9-1.6
	C148,43,147.5,41.4,147.5,39.8z"/>
<path class="st0" d="M158.7,25.2v-1.6h10.7v1.6h-4.3v20.3H163V25.2H158.7z"/>
<path class="st0" d="M176.7,45.5V23.6h4.7c2.1,0,3.7,0.6,4.6,1.7c1,1.4,1.5,3.1,1.3,4.8v8.7c0.1,1.8-0.3,3.5-1.3,5
	c-0.9,1.2-2.3,1.8-4.4,1.8L176.7,45.5z M178.7,44h2.8c0.9,0.1,1.7-0.2,2.5-0.7c0.6-0.5,0.9-1.1,1.1-1.8c0.2-1,0.3-2,0.2-3v-8.2
	c0-1-0.1-1.9-0.3-2.8c-0.2-0.7-0.6-1.3-1.2-1.6c-0.7-0.4-1.6-0.6-2.4-0.6h-2.7L178.7,44z"/>
<path class="st0" d="M189.9,42.3c0-0.9,0.2-1.8,0.6-2.5c0.5-0.7,1.1-1.3,1.9-1.8c1.2-0.7,2.5-1.4,3.8-1.9V35c0-0.8,0-1.5-0.2-2.3
	c-0.1-0.4-0.3-0.8-0.6-1.2c-0.3-0.3-0.7-0.4-1.2-0.3c-1.5,0-2.2,0.9-2.2,2.7v0.6l-2-0.1v-0.5c-0.1-1.2,0.4-2.3,1.1-3.2
	c0.9-0.7,2-1.1,3.1-1c1.1-0.1,2.2,0.4,2.9,1.2c0.7,1.2,1,2.6,0.9,3.9v7.6c0,0.5,0,1.1,0,1.7s0.1,1.1,0.1,1.4h-1.7l-0.3-2.1
	c-0.2,0.7-0.6,1.3-1.2,1.7c-0.6,0.5-1.3,0.7-2,0.7c-0.9,0-1.7-0.3-2.3-1C190.2,44,189.9,43.1,189.9,42.3z M191.9,41.8
	c0,0.6,0.1,1.2,0.5,1.7c0.3,0.4,0.8,0.6,1.3,0.6s1.1-0.2,1.5-0.5c0.4-0.4,0.8-0.8,1.1-1.3v-4.9c-1.2,0.7-2.1,1.2-2.7,1.5
	c-0.5,0.3-0.9,0.7-1.2,1.2C192,40.5,191.9,41.2,191.9,41.8L191.9,41.8z"/>
<path class="st0" d="M199.9,31.2v-1.3h1.9v-4.8h2v4.8h2.6v1.3h-2.6V42c0,0.6,0,1.1,0.3,1.6c0.3,0.3,0.7,0.5,1.1,0.5
	c0.4,0,0.8-0.1,1.1-0.2v1.6c-0.6,0.1-1.1,0.2-1.7,0.2c-0.8,0.1-1.7-0.2-2.2-0.9c-0.4-0.8-0.6-1.7-0.6-2.5v-11L199.9,31.2z"/>
<path class="st0" d="M208.1,42.3c0-0.9,0.2-1.8,0.6-2.5c0.5-0.7,1.1-1.3,1.9-1.8c1.2-0.7,2.5-1.4,3.8-1.9V35c0-0.8,0-1.5-0.2-2.3
	c-0.1-0.4-0.3-0.8-0.6-1.2c-0.3-0.3-0.7-0.4-1.2-0.3c-1.5,0-2.2,0.9-2.2,2.7v0.6l-2-0.1v-0.5c-0.1-1.2,0.4-2.3,1.1-3.2
	c0.9-0.7,2-1.1,3.1-1c1.1-0.1,2.2,0.4,2.9,1.2c0.7,1.2,1,2.6,0.9,3.9v7.6c0,0.5,0,1.1,0,1.7s0.1,1.1,0.1,1.4h-1.7l-0.3-2.1
	c-0.2,0.7-0.6,1.3-1.2,1.7c-0.6,0.5-1.3,0.7-2,0.7c-0.9,0-1.7-0.3-2.3-1C208.3,44,208,43.2,208.1,42.3z M210.1,41.8
	c0,0.6,0.1,1.2,0.5,1.7c0.3,0.4,0.8,0.6,1.3,0.6s1.1-0.2,1.5-0.5c0.4-0.4,0.8-0.8,1.1-1.3v-4.9c-1.2,0.7-2.1,1.2-2.7,1.5
	c-0.5,0.3-0.9,0.7-1.2,1.2C210.2,40.5,210,41.1,210.1,41.8L210.1,41.8z"/>
<path class="st0" d="M223.9,45.5l4.6-21.9h2.1l4.7,21.9h-2.1l-1.1-5.9h-5.2l-1.1,5.9H223.9z M227.3,38.2h4.7l-2.3-11.8L227.3,38.2z"
	/>
<path class="st0" d="M237.6,45.5V29.9h2v1.6c0.5-0.6,1.1-1,1.7-1.4c0.6-0.3,1.3-0.5,2-0.5s1.4,0.3,1.8,0.9c0.5,0.7,0.7,1.6,0.6,2.5
	v12.5h-2V33.4c0.1-0.6-0.1-1.2-0.4-1.7c-0.3-0.4-0.7-0.5-1.1-0.5c-0.5,0-0.9,0.1-1.4,0.4c-0.5,0.3-1,0.6-1.4,1.1v12.8H237.6z"/>
<path class="st0" d="M248.2,42.3c0-0.9,0.2-1.8,0.6-2.5c0.5-0.7,1.1-1.3,1.9-1.8c1.2-0.7,2.5-1.4,3.8-1.9V35c0-0.8,0-1.5-0.2-2.3
	c-0.1-0.4-0.3-0.8-0.6-1.2c-0.3-0.3-0.8-0.4-1.2-0.3c-1.5,0-2.2,0.9-2.2,2.7v0.6l-2-0.1v-0.5c-0.1-1.2,0.4-2.3,1.1-3.2
	c0.9-0.7,2-1.1,3.1-1c1.1-0.1,2.2,0.4,2.9,1.2c0.7,1.2,1,2.6,0.9,3.9v7.6c0,0.5,0,1.1,0,1.7s0,1.1,0.1,1.4h-1.6l-0.3-2.1
	c-0.2,0.7-0.6,1.3-1.2,1.7c-0.6,0.5-1.3,0.7-2,0.7c-0.9,0-1.7-0.3-2.3-1C248.4,44,248.1,43.1,248.2,42.3z M250.2,41.8
	c0,0.6,0.1,1.2,0.5,1.7c0.3,0.4,0.8,0.6,1.3,0.6s1.1-0.2,1.5-0.5c0.4-0.4,0.8-0.8,1.1-1.3v-4.9c-1.2,0.7-2.1,1.2-2.7,1.5
	c-0.5,0.3-0.9,0.7-1.2,1.2C250.3,40.5,250.1,41.2,250.2,41.8L250.2,41.8z"/>
<path class="st0" d="M259.6,45.5V23.6h2v21.9H259.6z"/>
<path class="st0" d="M264.1,29.9h1.7l2.7,13.3l2.6-13.3h2l-3.6,16.7c-0.1,0.9-0.6,1.6-1.3,2.1c-0.9,0.5-2,0.7-3,0.6h-0.5v-1.5
	c0.8,0.1,1.7-0.1,2.5-0.3c0.4-0.2,0.7-0.7,0.6-1.2c0-0.2,0-0.3,0-0.5c0-0.3-0.1-0.8-0.3-1.6l-0.1-0.6c-0.3-1.4-0.7-3-1.2-4.9
	s-0.9-3.7-1.3-5.4C264.4,31,264.1,29.9,264.1,29.9z"/>
<path class="st0" d="M274.4,41.3l1.6-0.5c0,0.9,0.3,1.8,0.8,2.6c0.4,0.6,1.1,0.9,1.9,0.8c0.6,0,1.2-0.2,1.6-0.6
	c0.4-0.4,0.6-1,0.6-1.6c-0.1-1.3-0.8-2.4-1.9-3.1l-2.1-1.8c-0.6-0.5-1.2-1.1-1.6-1.8c-0.3-0.6-0.5-1.3-0.5-2c-0.1-1,0.3-1.9,1-2.6
	c0.7-0.7,1.7-1,2.7-0.9c1-0.1,2,0.3,2.8,1.1c0.7,0.9,1.1,1.9,1.1,3l-1.5,0.5c-0.1-2-0.9-3.1-2.2-3.1c-0.5,0-1.1,0.1-1.5,0.5
	c-0.4,0.3-0.6,0.8-0.5,1.3v0.1c0,0.4,0.1,0.9,0.3,1.3c0.3,0.5,0.6,0.8,1.1,1.2l2.2,2c0.7,0.6,1.4,1.2,1.9,2c0.4,0.7,0.7,1.6,0.6,2.5
	c0.1,1-0.3,2-1.1,2.8c-0.8,0.7-1.8,1.1-2.9,1c-1.1,0-2.2-0.4-3-1.2C274.9,43.6,274.4,42.5,274.4,41.3z"/>
<path class="st0" d="M285.1,27.7V25h2v2.7H285.1z M285.1,45.5V29.9h2v15.6H285.1z"/>
<path class="st0" d="M289.7,41.3l1.6-0.5c0,0.9,0.3,1.8,0.8,2.6c0.4,0.6,1.1,0.9,1.9,0.8c0.6,0,1.2-0.2,1.6-0.6
	c0.4-0.4,0.6-1,0.6-1.6c-0.1-1.3-0.8-2.4-1.9-3.1l-2.1-1.8c-0.6-0.5-1.2-1.1-1.6-1.8c-0.4-0.6-0.5-1.3-0.5-2c-0.1-1,0.3-1.9,1-2.6
	c0.7-0.7,1.7-1,2.7-0.9c1-0.1,2,0.3,2.8,1.1c0.7,0.8,1.1,1.9,1.1,3l-1.5,0.5c-0.1-2-0.8-3.1-2.2-3.1c-0.5,0-1.1,0.1-1.5,0.5
	c-0.4,0.3-0.6,0.8-0.5,1.3v0.1c0,0.4,0.1,0.9,0.3,1.3c0.3,0.5,0.6,0.9,1,1.2l2.2,2c0.7,0.6,1.4,1.2,1.9,2c0.4,0.7,0.7,1.6,0.6,2.5
	c0.1,1-0.3,2.1-1.1,2.8c-0.8,0.7-1.8,1.1-2.9,1c-1.1,0.1-2.2-0.4-3-1.2C290.1,43.6,289.7,42.5,289.7,41.3z"/>
<rect x="113.4" y="55.1" class="st0" width="184.6" height="2.5"/>
<path class="st0" d="M120.6,104.1V62.8h2.8l13.1,32.1V62.8h3.4v41.3h-2.8l-13.2-32.4v32.4C123.9,104.1,120.6,104.1,120.6,104.1z"/>
<path class="st0" d="M145.8,93.5v-8.2c0-3.8,0.6-6.6,1.7-8.4c1.1-1.8,3.2-2.7,6.1-2.7s4.9,0.9,6.1,2.7s1.7,4.6,1.7,8.4v8.2
	c0,3.8-0.6,6.6-1.7,8.4s-3.2,2.7-6.1,2.7s-5-0.9-6.1-2.7S145.8,97.2,145.8,93.5z M149.5,93.7c0,1.5,0.1,3,0.2,4.5
	c0.1,1,0.5,1.9,1.1,2.6c0.7,0.7,1.7,1.1,2.8,1c1,0.1,2-0.3,2.7-1c0.6-0.7,1-1.7,1.1-2.7c0.2-1.5,0.3-3,0.2-4.5V85
	c0-1.5-0.1-3-0.2-4.5c-0.1-1-0.5-1.9-1.1-2.7c-0.7-0.7-1.7-1.1-2.7-1c-1-0.1-2,0.3-2.8,1c-0.6,0.7-1,1.7-1.1,2.6
	c-0.2,1.5-0.3,3-0.2,4.5V93.7z"/>
<path class="st0" d="M164.7,77.2v-2.5h3.6v-9h3.7v9h4.9v2.5H172v20.5c-0.1,1.1,0.1,2.1,0.5,3.1c0.5,0.6,1.3,0.9,2.1,0.8
	c0.7,0,1.5-0.1,2.2-0.3v2.9c-1,0.2-2.1,0.3-3.2,0.3c-2,0-3.4-0.6-4.2-1.7c-0.8-1.5-1.2-3.1-1.1-4.8V77.2H164.7z"/>
<path class="st0" d="M180.4,93.1v-7.5c-0.1-2.3,0.2-4.6,0.8-6.8c0.4-1.5,1.3-2.7,2.6-3.6c1.4-0.8,3-1.1,4.6-1.1
	c1.7-0.1,3.4,0.4,4.8,1.3c1.2,1,2,2.4,2.3,3.9c0.5,2.3,0.7,4.6,0.6,7V89h-12v4.4c0,1.6,0.1,3.3,0.4,4.9c0.1,1,0.6,1.9,1.3,2.6
	c0.7,0.6,1.7,0.9,2.6,0.8c1.1,0.1,2.2-0.4,3-1.2c0.7-0.8,1-2.3,1-4.4v-2h3.7v1.6c0,2.8-0.6,5-1.8,6.6s-3.2,2.3-5.9,2.3
	c-1.6,0.1-3.2-0.3-4.6-1.1c-1.2-0.9-2.1-2.1-2.6-3.6C180.6,97.6,180.3,95.3,180.4,93.1z M184.1,86.9h8.3v-2.5c0-1.4-0.1-2.8-0.3-4.2
	c-0.1-0.9-0.5-1.7-1.1-2.4c-0.7-0.6-1.7-0.9-2.6-0.9c-0.9,0-1.8,0.2-2.5,0.7c-0.7,0.6-1.2,1.5-1.3,2.4c-0.3,1.6-0.4,3.2-0.4,4.8
	L184.1,86.9z"/>
<path class="st0" d="M201.1,104.1V62.8h3.7v14.3c0.7-0.9,1.5-1.6,2.4-2.1c1-0.6,2.1-0.8,3.2-0.8c2.3-0.2,4.4,1.1,5.2,3.2
	c1,2.7,1.5,5.6,1.4,8.5v6.2c0,4.1-0.5,7.1-1.6,9.2c-1,2.1-3.2,3.3-5.4,3.2l0,0c-2.1-0.1-4-1.1-5.2-2.8v2.3L201.1,104.1z M204.8,99.5
	c1.1,1.4,2.8,2.1,4.6,2.1c1.4,0.1,2.8-0.8,3.2-2.2c0.6-2.3,0.9-4.8,0.8-7.2v-6.3c0.1-2.3-0.1-4.6-0.8-6.8c-0.5-1.3-1.8-2.1-3.2-2
	c-1.8,0.1-3.4,0.9-4.6,2.2V99.5z"/>
<path class="st0" d="M221.7,93.5v-8.2c0-3.8,0.6-6.6,1.7-8.4c1.2-1.8,3.2-2.7,6.1-2.7c2.9,0,4.9,0.9,6.1,2.7s1.7,4.6,1.7,8.4v8.2
	c0,3.8-0.6,6.6-1.7,8.4c-1.1,1.8-3.2,2.7-6.1,2.7s-5-0.9-6.1-2.7S221.7,97.2,221.7,93.5z M225.4,93.7c0,1.5,0.1,3,0.2,4.5
	c0.1,1,0.5,1.9,1.1,2.6c0.7,0.7,1.7,1.1,2.8,1c1,0.1,2-0.3,2.7-1c0.6-0.7,1-1.7,1.1-2.7c0.2-1.5,0.3-3,0.2-4.5V85
	c0-1.5-0.1-3-0.2-4.5c-0.1-1-0.5-1.9-1.1-2.7c-0.7-0.7-1.7-1.1-2.7-1c-1-0.1-2,0.3-2.8,1c-0.6,0.7-1,1.7-1.1,2.6
	c-0.2,1.5-0.3,3-0.2,4.5V93.7z"/>
<path class="st0" d="M242,93.5v-8.2c0-3.8,0.6-6.6,1.7-8.4c1.1-1.8,3.2-2.7,6.1-2.7s5,0.9,6.1,2.7c1.1,1.8,1.7,4.6,1.7,8.4v8.2
	c0,3.8-0.6,6.6-1.7,8.4c-1.2,1.8-3.2,2.7-6.1,2.7s-5-0.9-6.1-2.7S242,97.2,242,93.5z M245.7,93.7c0,1.5,0.1,3,0.2,4.5
	c0.1,1,0.5,1.9,1.1,2.6c1.6,1.3,3.9,1.3,5.5,0c0.6-0.7,1-1.7,1.1-2.7c0.2-1.5,0.3-3,0.2-4.5V85c0-1.5-0.1-3-0.2-4.5
	c-0.1-1-0.5-1.9-1.1-2.7c-1.6-1.3-3.9-1.3-5.5,0c-0.6,0.7-1,1.7-1.1,2.6c-0.2,1.5-0.3,3-0.2,4.5V93.7z"/>
<path class="st0" d="M262.9,104.1V62.8h3.7V89l9.9-14.4h3.9L273,86l7.1,18.1h-3.8l-6.2-16l-3.5,4.8v11.2H262.9z"/>
<path class="st0" d="M281.9,96.2l3.1-1c0,1.8,0.6,3.5,1.5,4.9c0.8,1.1,2.1,1.7,3.5,1.6c1.1,0.1,2.2-0.3,3-1.1
	c0.8-0.8,1.2-1.9,1.1-3.1c0-1.9-1.2-3.9-3.6-5.9l-4-3.5c-1.2-0.9-2.2-2.1-3-3.4c-0.7-1.2-1-2.5-1-3.9c-0.1-1.9,0.6-3.7,1.9-5
	c1.4-1.2,3.3-1.9,5.1-1.8c2-0.1,3.9,0.7,5.2,2.1c1.3,1.6,2,3.6,2,5.7l-2.9,0.9c-0.2-3.9-1.6-5.8-4.2-5.8c-1,0-2,0.3-2.8,1
	c-0.7,0.6-1,1.6-1,2.5v0.2c0,0.8,0.2,1.7,0.5,2.4c0.5,0.9,1.1,1.6,1.9,2.2l4.2,3.7c1.4,1.1,2.6,2.5,3.6,3.9c0.8,1.4,1.3,3,1.2,4.6
	c0.1,1.9-0.6,3.9-2,5.2c-1.5,1.3-3.5,2-5.5,1.8c-2.1,0.1-4.1-0.7-5.6-2.2C282.9,100.6,282,98.5,281.9,96.2z"/>
<path class="st0" d="M75.4,23.4H36.9L17.7,56.7L37,90h38.4l19.2-33.3L75.4,23.4z M69.2,33.9c0.2-0.6,0.6-1.1,1.2-1.4
	c0.5-0.4,1.2-0.6,1.8-0.6c0.4,0,0.8,0,1.2,0.2c0.3,0.2,0.8,0.4,1,0.6c0.3,0.3,0.6,0.6,0.8,1c0.2,0.4,0.3,0.8,0.2,1.2
	c-0.1,0.6-0.2,1.2-0.4,1.8c-0.3,0.6-0.8,1-1.4,1.2c-0.6,0.3-1.2,0.3-1.8,0.2c-0.6,0-1.2-0.3-1.6-0.8c-0.5-0.4-0.8-1-1-1.5
	C69.1,35.1,69.1,34.5,69.2,33.9z M45.3,40c3.5-2.4,7.6-3.7,11.8-3.7c4.2,0.1,8.3,1.4,11.7,3.7c3.5,2.4,6.1,5.8,7.5,9.8
	c-3.7-4.3-11-7.5-19.3-7.5s-15.5,3-19.3,7.5C39.2,45.8,41.8,42.4,45.3,40z M36.7,40c-0.2-0.5-0.3-1-0.2-1.5c0.1-0.9,0.9-1.7,1.8-1.8
	c0.4-0.2,1,0,1.4,0c0.4,0.2,0.8,0.4,1,0.8c0.2,0.4,0.4,0.8,0.4,1.2c0,0.6-0.2,1.1-0.6,1.5C40.1,40.7,39.6,41,39,41
	c-0.4,0-0.8-0.2-1.2-0.4C37.2,40.7,36.8,40.4,36.7,40z M45.2,81.5c-0.4,0.7-1,1.2-1.8,1.6c-0.8,0.3-1.6,0.4-2.4,0.3
	c-0.8-0.1-1.5-0.5-2.1-1s-1-1.2-1.2-1.9c0.2-0.8,0.2-1.6,0.3-2.1c0.2-0.8,0.7-1.4,1.4-1.8c0.6-0.4,1.4-0.7,2.1-0.8
	c0.5,0,1.1,0,1.5,0.2c0.5,0.2,1,0.5,1.4,0.8s0.7,0.7,1,1.2s0.4,1,0.4,1.6C45.8,80.2,45.5,80.9,45.2,81.5z M68.8,73.3
	C65.3,75.7,61.2,77,57,77c-4.2-0.1-8.3-1.4-11.8-3.7c-3.4-2.4-6-5.8-7.4-9.8c3.7,4.3,11,7.5,19.3,7.5s15.5-3,19.3-7.5
	C74.9,67.4,72.2,70.8,68.8,73.3z"/>
<polygon class="st0" points="13.8,58.8 0,58.8 0,112.8 21.1,112.8 32.9,92.2 "/>
<polygon class="st0" points="36.5,94.5 26,112.8 85.6,112.8 75,94.5 "/>
<polygon class="st0" points="112.6,58.8 98.6,58.8 79.5,92.1 91.4,112.8 112.6,112.8 "/>
<polygon class="st0" points="98.9,54.5 112.6,54.5 112.6,0 91.6,0 79.6,21 "/>
<polygon class="st0" points="75.1,19.1 85.6,0 26,0 36.6,19.1 "/>
<polygon class="st0" points="32.9,21.6 20.6,0 0,0 0,54.9 13.8,54.9 "/>
</svg>
